<svg width="1200" height="880" viewBox="0 0 1200 880" fill="none" xmlns="http://www.w3.org/2000/svg">
  <defs>
    <linearGradient id="bg" x1="0" y1="0" x2="1200" y2="880" gradientUnits="userSpaceOnUse">
      <stop stop-color="#FFFFFF"/>
      <stop offset="1" stop-color="#F5F7FF"/>
    </linearGradient>
    <radialGradient id="g1" cx="0" cy="0" r="1" gradientUnits="userSpaceOnUse" gradientTransform="translate(300 220) rotate(40) scale(520 380)">
      <stop stop-color="#2563EB" stop-opacity="0.18"/>
      <stop offset="1" stop-color="#2563EB" stop-opacity="0"/>
    </radialGradient>
    <radialGradient id="g2" cx="0" cy="0" r="1" gradientUnits="userSpaceOnUse" gradientTransform="translate(920 300) rotate(20) scale(560 420)">
      <stop stop-color="#7C3AED" stop-opacity="0.14"/>
      <stop offset="1" stop-color="#7C3AED" stop-opacity="0"/>
    </radialGradient>
  </defs>

  <rect width="1200" height="880" rx="28" fill="url(#bg)"/>
  <rect width="1200" height="880" rx="28" fill="url(#g1)"/>
  <rect width="1200" height="880" rx="28" fill="url(#g2)"/>

  <g opacity="0.92">
    <rect x="140" y="160" width="920" height="560" rx="26" fill="#FFFFFF" stroke="#0B1220" stroke-opacity="0.10"/>

    <rect x="190" y="220" width="360" height="22" rx="11" fill="#0B1220" fill-opacity="0.08"/>
    <rect x="190" y="258" width="520" height="22" rx="11" fill="#0B1220" fill-opacity="0.06"/>

    <rect x="190" y="320" width="420" height="150" rx="20" fill="#0B1220" fill-opacity="0.04"/>
    <rect x="630" y="320" width="380" height="150" rx="20" fill="#0B1220" fill-opacity="0.04"/>

    <rect x="190" y="492" width="820" height="180" rx="22" fill="#0B1220" fill-opacity="0.035"/>

    <path d="M225 360H560" stroke="#0B1220" stroke-opacity="0.12" stroke-width="12" stroke-linecap="round"/>
    <path d="M225 398H520" stroke="#0B1220" stroke-opacity="0.10" stroke-width="12" stroke-linecap="round"/>

    <path d="M665 360H970" stroke="#0B1220" stroke-opacity="0.12" stroke-width="12" stroke-linecap="round"/>
    <path d="M665 398H920" stroke="#0B1220" stroke-opacity="0.10" stroke-width="12" stroke-linecap="round"/>

    <path d="M225 546H1000" stroke="#0B1220" stroke-opacity="0.10" stroke-width="12" stroke-linecap="round"/>
    <path d="M225 584H920" stroke="#0B1220" stroke-opacity="0.08" stroke-width="12" stroke-linecap="round"/>
    <path d="M225 622H820" stroke="#0B1220" stroke-opacity="0.06" stroke-width="12" stroke-linecap="round"/>
  </g>
</svg>