<svg width="1200" height="880" viewBox="0 0 1200 880" fill="none" xmlns="http://www.w3.org/2000/svg">
  <defs>
    <linearGradient id="bg" x1="0" y1="0" x2="1200" y2="880" gradientUnits="userSpaceOnUse">
      <stop stop-color="#EEF2FF"/>
      <stop offset="1" stop-color="#FFFFFF"/>
    </linearGradient>
    <radialGradient id="g1" cx="0" cy="0" r="1" gradientUnits="userSpaceOnUse" gradientTransform="translate(260 180) rotate(45) scale(520 340)">
      <stop stop-color="#2563EB" stop-opacity="0.22"/>
      <stop offset="1" stop-color="#2563EB" stop-opacity="0"/>
    </radialGradient>
    <radialGradient id="g2" cx="0" cy="0" r="1" gradientUnits="userSpaceOnUse" gradientTransform="translate(950 240) rotate(15) scale(520 360)">
      <stop stop-color="#7C3AED" stop-opacity="0.18"/>
      <stop offset="1" stop-color="#7C3AED" stop-opacity="0"/>
    </radialGradient>
  </defs>

  <rect width="1200" height="880" rx="28" fill="url(#bg)"/>
  <rect width="1200" height="880" rx="28" fill="url(#g1)"/>
  <rect width="1200" height="880" rx="28" fill="url(#g2)"/>

  <g opacity="0.9">
    <rect x="120" y="140" width="470" height="86" rx="18" fill="#FFFFFF" stroke="#0B1220" stroke-opacity="0.10"/>
    <rect x="120" y="250" width="610" height="26" rx="13" fill="#0B1220" fill-opacity="0.08"/>
    <rect x="120" y="290" width="520" height="26" rx="13" fill="#0B1220" fill-opacity="0.07"/>

    <rect x="120" y="360" width="190" height="56" rx="16" fill="#2563EB" fill-opacity="0.10" stroke="#2563EB" stroke-opacity="0.20"/>
    <rect x="330" y="360" width="190" height="56" rx="16" fill="#FFFFFF" stroke="#0B1220" stroke-opacity="0.10"/>

    <rect x="120" y="460" width="960" height="300" rx="24" fill="#FFFFFF" stroke="#0B1220" stroke-opacity="0.10"/>

    <rect x="160" y="506" width="280" height="210" rx="18" fill="#0B1220" fill-opacity="0.04"/>
    <rect x="470" y="506" width="280" height="210" rx="18" fill="#0B1220" fill-opacity="0.04"/>
    <rect x="780" y="506" width="260" height="210" rx="18" fill="#0B1220" fill-opacity="0.04"/>

    <path d="M190 560H410" stroke="#0B1220" stroke-opacity="0.14" stroke-width="12" stroke-linecap="round"/>
    <path d="M500 560H720" stroke="#0B1220" stroke-opacity="0.14" stroke-width="12" stroke-linecap="round"/>
    <path d="M810 560H1010" stroke="#0B1220" stroke-opacity="0.14" stroke-width="12" stroke-linecap="round"/>

    <path d="M190 600H360" stroke="#0B1220" stroke-opacity="0.10" stroke-width="12" stroke-linecap="round"/>
    <path d="M500 600H640" stroke="#0B1220" stroke-opacity="0.10" stroke-width="12" stroke-linecap="round"/>
    <path d="M810 600H950" stroke="#0B1220" stroke-opacity="0.10" stroke-width="12" stroke-linecap="round"/>
  </g>
</svg>