<svg width="1200" height="880" viewBox="0 0 1200 880" fill="none" xmlns="http://www.w3.org/2000/svg">
  <defs>
    <linearGradient id="bg" x1="0" y1="0" x2="1200" y2="880" gradientUnits="userSpaceOnUse">
      <stop stop-color="#FFFFFF"/>
      <stop offset="1" stop-color="#EEF2FF"/>
    </linearGradient>
    <radialGradient id="g1" cx="0" cy="0" r="1" gradientUnits="userSpaceOnUse" gradientTransform="translate(320 240) rotate(35) scale(560 420)">
      <stop stop-color="#2563EB" stop-opacity="0.20"/>
      <stop offset="1" stop-color="#2563EB" stop-opacity="0"/>
    </radialGradient>
    <radialGradient id="g2" cx="0" cy="0" r="1" gradientUnits="userSpaceOnUse" gradientTransform="translate(940 220) rotate(10) scale(560 420)">
      <stop stop-color="#7C3AED" stop-opacity="0.16"/>
      <stop offset="1" stop-color="#7C3AED" stop-opacity="0"/>
    </radialGradient>
  </defs>

  <rect width="1200" height="880" rx="28" fill="url(#bg)"/>
  <rect width="1200" height="880" rx="28" fill="url(#g1)"/>
  <rect width="1200" height="880" rx="28" fill="url(#g2)"/>

  <g opacity="0.92">
    <rect x="150" y="150" width="900" height="580" rx="26" fill="#FFFFFF" stroke="#0B1220" stroke-opacity="0.10"/>

    <rect x="200" y="210" width="420" height="28" rx="14" fill="#0B1220" fill-opacity="0.07"/>
    <rect x="200" y="256" width="620" height="18" rx="9" fill="#0B1220" fill-opacity="0.06"/>

    <rect x="200" y="310" width="260" height="120" rx="20" fill="#0B1220" fill-opacity="0.04"/>
    <rect x="480" y="310" width="260" height="120" rx="20" fill="#0B1220" fill-opacity="0.04"/>
    <rect x="760" y="310" width="270" height="120" rx="20" fill="#0B1220" fill-opacity="0.04"/>

    <rect x="200" y="460" width="830" height="220" rx="22" fill="#0B1220" fill-opacity="0.035"/>

    <path d="M230 510H980" stroke="#0B1220" stroke-opacity="0.10" stroke-width="12" stroke-linecap="round"/>
    <path d="M230 548H920" stroke="#0B1220" stroke-opacity="0.08" stroke-width="12" stroke-linecap="round"/>
    <path d="M230 586H860" stroke="#0B1220" stroke-opacity="0.06" stroke-width="12" stroke-linecap="round"/>
  </g>
</svg>